<mxfile host="Electron" modified="2024-06-04T20:42:33.191Z" agent="Mozilla/5.0 (Windows NT 10.0; Win64; x64) AppleWebKit/537.36 (KHTML, like Gecko) draw.io/24.4.13 Chrome/124.0.6367.207 Electron/30.0.6 Safari/537.36" etag="eBOXctEfP6YWcNXtMQGN" version="24.4.13" type="device">
  <diagram id="R2lEEEUBdFMjLlhIrx00" name="Page-1">
    <mxGraphModel dx="2800" dy="2383" grid="1" gridSize="10" guides="1" tooltips="1" connect="1" arrows="1" fold="1" page="1" pageScale="1" pageWidth="850" pageHeight="1100" math="0" shadow="0" extFonts="Permanent Marker^https://fonts.googleapis.com/css?family=Permanent+Marker">
      <root>
        <mxCell id="0" />
        <mxCell id="1" parent="0" />
        <mxCell id="jHpQRTPUm73WB0wf3Dqe-55" style="edgeStyle=orthogonalEdgeStyle;rounded=1;orthogonalLoop=1;jettySize=auto;html=1;exitX=0.25;exitY=1;exitDx=0;exitDy=0;entryX=1;entryY=0.5;entryDx=0;entryDy=0;strokeWidth=2;curved=0;jumpStyle=line;strokeColor=#330066;" parent="1" source="jHpQRTPUm73WB0wf3Dqe-2" target="jHpQRTPUm73WB0wf3Dqe-54" edge="1">
          <mxGeometry relative="1" as="geometry" />
        </mxCell>
        <mxCell id="jHpQRTPUm73WB0wf3Dqe-92" value="" style="edgeStyle=orthogonalEdgeStyle;rounded=0;orthogonalLoop=1;jettySize=auto;html=1;strokeWidth=2;" parent="1" target="jHpQRTPUm73WB0wf3Dqe-88" edge="1">
          <mxGeometry relative="1" as="geometry">
            <mxPoint x="1660" y="320" as="sourcePoint" />
          </mxGeometry>
        </mxCell>
        <mxCell id="kW0MzSgPqo5yttDoxU_o-33" value="" style="edgeStyle=orthogonalEdgeStyle;rounded=0;orthogonalLoop=1;jettySize=auto;html=1;strokeColor=#000000;strokeWidth=2;align=center;verticalAlign=middle;fontFamily=Helvetica;fontSize=11;fontColor=default;labelBackgroundColor=default;endArrow=classic;exitX=1;exitY=0.5;exitDx=0;exitDy=0;" parent="1" source="jHpQRTPUm73WB0wf3Dqe-2" target="jHpQRTPUm73WB0wf3Dqe-88" edge="1">
          <mxGeometry relative="1" as="geometry" />
        </mxCell>
        <mxCell id="kW0MzSgPqo5yttDoxU_o-45" style="edgeStyle=orthogonalEdgeStyle;rounded=1;orthogonalLoop=1;jettySize=auto;html=1;exitX=0.323;exitY=0.003;exitDx=0;exitDy=0;entryX=1;entryY=0.5;entryDx=0;entryDy=0;strokeColor=#330066;strokeWidth=2;align=center;verticalAlign=middle;fontFamily=Helvetica;fontSize=11;fontColor=default;labelBackgroundColor=default;endArrow=classic;exitPerimeter=0;curved=0;" parent="1" source="jHpQRTPUm73WB0wf3Dqe-2" target="kW0MzSgPqo5yttDoxU_o-4" edge="1">
          <mxGeometry relative="1" as="geometry" />
        </mxCell>
        <mxCell id="kW0MzSgPqo5yttDoxU_o-46" style="edgeStyle=orthogonalEdgeStyle;rounded=1;orthogonalLoop=1;jettySize=auto;html=1;exitX=0.637;exitY=0.003;exitDx=0;exitDy=0;entryX=1;entryY=0.5;entryDx=0;entryDy=0;strokeColor=#330066;strokeWidth=2;align=center;verticalAlign=middle;fontFamily=Helvetica;fontSize=11;fontColor=default;labelBackgroundColor=default;endArrow=classic;exitPerimeter=0;curved=0;" parent="1" source="jHpQRTPUm73WB0wf3Dqe-2" target="kW0MzSgPqo5yttDoxU_o-38" edge="1">
          <mxGeometry relative="1" as="geometry" />
        </mxCell>
        <mxCell id="jHpQRTPUm73WB0wf3Dqe-2" value="Microcontroller_Interface_Node" style="rounded=0;whiteSpace=wrap;html=1;strokeWidth=2;" parent="1" vertex="1">
          <mxGeometry x="1390" y="290" width="200" height="60" as="geometry" />
        </mxCell>
        <mxCell id="jHpQRTPUm73WB0wf3Dqe-17" style="edgeStyle=orthogonalEdgeStyle;rounded=1;orthogonalLoop=1;jettySize=auto;html=1;exitX=0.25;exitY=1;exitDx=0;exitDy=0;entryX=0;entryY=0.5;entryDx=0;entryDy=0;strokeWidth=2;jumpStyle=line;curved=0;strokeColor=#FF8000;" parent="1" source="jHpQRTPUm73WB0wf3Dqe-3" target="jHpQRTPUm73WB0wf3Dqe-58" edge="1">
          <mxGeometry relative="1" as="geometry" />
        </mxCell>
        <mxCell id="jHpQRTPUm73WB0wf3Dqe-66" style="edgeStyle=orthogonalEdgeStyle;rounded=0;orthogonalLoop=1;jettySize=auto;html=1;exitX=1;exitY=0.75;exitDx=0;exitDy=0;entryX=0;entryY=0.5;entryDx=0;entryDy=0;strokeWidth=2;strokeColor=#330066;" parent="1" source="jHpQRTPUm73WB0wf3Dqe-3" target="jHpQRTPUm73WB0wf3Dqe-63" edge="1">
          <mxGeometry relative="1" as="geometry" />
        </mxCell>
        <mxCell id="jHpQRTPUm73WB0wf3Dqe-69" style="edgeStyle=orthogonalEdgeStyle;rounded=1;orthogonalLoop=1;jettySize=auto;html=1;exitX=1;exitY=0.25;exitDx=0;exitDy=0;entryX=0.004;entryY=0.509;entryDx=0;entryDy=0;strokeWidth=2;curved=0;entryPerimeter=0;strokeColor=#FF8000;" parent="1" source="jHpQRTPUm73WB0wf3Dqe-3" target="jHpQRTPUm73WB0wf3Dqe-68" edge="1">
          <mxGeometry relative="1" as="geometry">
            <mxPoint x="20" y="350" as="sourcePoint" />
            <mxPoint x="135" y="410" as="targetPoint" />
            <Array as="points">
              <mxPoint x="120" y="305" />
              <mxPoint x="120" y="205" />
              <mxPoint x="151" y="205" />
            </Array>
          </mxGeometry>
        </mxCell>
        <mxCell id="jHpQRTPUm73WB0wf3Dqe-84" style="edgeStyle=orthogonalEdgeStyle;rounded=1;orthogonalLoop=1;jettySize=auto;html=1;exitX=0.101;exitY=-0.041;exitDx=0;exitDy=0;entryX=0;entryY=0.5;entryDx=0;entryDy=0;strokeWidth=2;curved=0;strokeColor=#FF8000;exitPerimeter=0;" parent="1" source="jHpQRTPUm73WB0wf3Dqe-3" target="jHpQRTPUm73WB0wf3Dqe-83" edge="1">
          <mxGeometry relative="1" as="geometry">
            <Array as="points">
              <mxPoint x="-136" y="-125" />
            </Array>
          </mxGeometry>
        </mxCell>
        <mxCell id="kW0MzSgPqo5yttDoxU_o-22" style="edgeStyle=orthogonalEdgeStyle;rounded=1;orthogonalLoop=1;jettySize=auto;html=1;exitX=0.75;exitY=1;exitDx=0;exitDy=0;entryX=0;entryY=0.5;entryDx=0;entryDy=0;strokeColor=#FF8000;strokeWidth=2;align=center;verticalAlign=middle;fontFamily=Helvetica;fontSize=11;fontColor=default;labelBackgroundColor=default;endArrow=classic;curved=0;" parent="1" source="jHpQRTPUm73WB0wf3Dqe-3" target="kW0MzSgPqo5yttDoxU_o-21" edge="1">
          <mxGeometry relative="1" as="geometry" />
        </mxCell>
        <mxCell id="jHpQRTPUm73WB0wf3Dqe-3" value="ROS_Controller_Node" style="rounded=0;whiteSpace=wrap;html=1;strokeWidth=2;" parent="1" vertex="1">
          <mxGeometry x="-160" y="290" width="240" height="60" as="geometry" />
        </mxCell>
        <mxCell id="jHpQRTPUm73WB0wf3Dqe-26" style="edgeStyle=orthogonalEdgeStyle;rounded=1;orthogonalLoop=1;jettySize=auto;html=1;strokeWidth=2;jumpStyle=line;curved=0;strokeColor=#FF8000;exitX=1;exitY=0.5;exitDx=0;exitDy=0;entryX=0.149;entryY=-0.033;entryDx=0;entryDy=0;entryPerimeter=0;" parent="1" source="kW0MzSgPqo5yttDoxU_o-2" target="jHpQRTPUm73WB0wf3Dqe-2" edge="1">
          <mxGeometry relative="1" as="geometry">
            <mxPoint x="1180" y="90" as="sourcePoint" />
            <mxPoint x="1411" y="290" as="targetPoint" />
          </mxGeometry>
        </mxCell>
        <mxCell id="kW0MzSgPqo5yttDoxU_o-3" style="edgeStyle=orthogonalEdgeStyle;rounded=1;orthogonalLoop=1;jettySize=auto;html=1;exitX=0.75;exitY=0;exitDx=0;exitDy=0;entryX=0;entryY=0.5;entryDx=0;entryDy=0;strokeWidth=2;strokeColor=#FF8000;curved=0;" parent="1" source="jHpQRTPUm73WB0wf3Dqe-3" target="kW0MzSgPqo5yttDoxU_o-2" edge="1">
          <mxGeometry relative="1" as="geometry">
            <mxPoint x="870" y="120" as="sourcePoint" />
            <Array as="points">
              <mxPoint x="20" y="105" />
            </Array>
          </mxGeometry>
        </mxCell>
        <mxCell id="jHpQRTPUm73WB0wf3Dqe-25" style="edgeStyle=orthogonalEdgeStyle;rounded=1;orthogonalLoop=1;jettySize=auto;html=1;exitX=1;exitY=0.5;exitDx=0;exitDy=0;strokeWidth=2;jumpStyle=line;curved=0;strokeColor=#330066;entryX=0.5;entryY=1;entryDx=0;entryDy=0;" parent="1" source="jHpQRTPUm73WB0wf3Dqe-44" target="jHpQRTPUm73WB0wf3Dqe-2" edge="1">
          <mxGeometry relative="1" as="geometry">
            <mxPoint x="1480" y="350" as="targetPoint" />
            <Array as="points">
              <mxPoint x="1490" y="565" />
            </Array>
          </mxGeometry>
        </mxCell>
        <mxCell id="jHpQRTPUm73WB0wf3Dqe-46" style="edgeStyle=orthogonalEdgeStyle;rounded=1;orthogonalLoop=1;jettySize=auto;html=1;exitX=1;exitY=0.75;exitDx=0;exitDy=0;curved=0;jumpStyle=line;strokeWidth=2;strokeColor=#330066;" parent="1" source="jHpQRTPUm73WB0wf3Dqe-7" target="jHpQRTPUm73WB0wf3Dqe-44" edge="1">
          <mxGeometry relative="1" as="geometry" />
        </mxCell>
        <mxCell id="jHpQRTPUm73WB0wf3Dqe-7" value="End_Effector_Controller_Node" style="rounded=0;whiteSpace=wrap;html=1;strokeWidth=2;" parent="1" vertex="1">
          <mxGeometry x="610" y="520" width="180" height="60" as="geometry" />
        </mxCell>
        <mxCell id="jHpQRTPUm73WB0wf3Dqe-106" style="edgeStyle=orthogonalEdgeStyle;rounded=0;orthogonalLoop=1;jettySize=auto;html=1;exitX=1;exitY=0.5;exitDx=0;exitDy=0;entryX=0;entryY=0.5;entryDx=0;entryDy=0;strokeWidth=2;strokeColor=#330066;" parent="1" source="jHpQRTPUm73WB0wf3Dqe-10" target="jHpQRTPUm73WB0wf3Dqe-104" edge="1">
          <mxGeometry relative="1" as="geometry" />
        </mxCell>
        <mxCell id="kW0MzSgPqo5yttDoxU_o-28" style="edgeStyle=orthogonalEdgeStyle;rounded=1;orthogonalLoop=1;jettySize=auto;html=1;exitX=0.5;exitY=1;exitDx=0;exitDy=0;entryX=0;entryY=0.5;entryDx=0;entryDy=0;strokeColor=#330066;strokeWidth=2;align=center;verticalAlign=middle;fontFamily=Helvetica;fontSize=11;fontColor=default;labelBackgroundColor=default;endArrow=classic;curved=0;" parent="1" source="jHpQRTPUm73WB0wf3Dqe-10" target="jHpQRTPUm73WB0wf3Dqe-63" edge="1">
          <mxGeometry relative="1" as="geometry">
            <Array as="points">
              <mxPoint x="-505" y="460" />
              <mxPoint x="170" y="460" />
              <mxPoint x="170" y="335" />
            </Array>
          </mxGeometry>
        </mxCell>
        <mxCell id="jHpQRTPUm73WB0wf3Dqe-10" value="Peripherial_Interface_Node" style="rounded=0;whiteSpace=wrap;html=1;strokeWidth=2;" parent="1" vertex="1">
          <mxGeometry x="-600" y="290" width="190" height="60" as="geometry" />
        </mxCell>
        <mxCell id="jHpQRTPUm73WB0wf3Dqe-103" style="edgeStyle=orthogonalEdgeStyle;rounded=1;orthogonalLoop=1;jettySize=auto;html=1;exitX=1;exitY=0.5;exitDx=0;exitDy=0;entryX=0;entryY=0.5;entryDx=0;entryDy=0;curved=0;strokeWidth=2;endArrow=none;endFill=0;strokeColor=#330066;" parent="1" source="jHpQRTPUm73WB0wf3Dqe-18" target="jHpQRTPUm73WB0wf3Dqe-41" edge="1">
          <mxGeometry relative="1" as="geometry">
            <Array as="points">
              <mxPoint x="1080" y="415" />
              <mxPoint x="1080" y="320" />
            </Array>
          </mxGeometry>
        </mxCell>
        <mxCell id="jHpQRTPUm73WB0wf3Dqe-18" value="Joint_Controller_Node" style="rounded=0;whiteSpace=wrap;html=1;strokeWidth=2;" parent="1" vertex="1">
          <mxGeometry x="850" y="375" width="140" height="80" as="geometry" />
        </mxCell>
        <mxCell id="jHpQRTPUm73WB0wf3Dqe-28" style="edgeStyle=orthogonalEdgeStyle;rounded=1;orthogonalLoop=1;jettySize=auto;html=1;exitX=1;exitY=0.5;exitDx=0;exitDy=0;entryX=0;entryY=0.5;entryDx=0;entryDy=0;strokeWidth=2;jumpStyle=line;curved=0;strokeColor=#330066;" parent="1" source="jHpQRTPUm73WB0wf3Dqe-41" target="jHpQRTPUm73WB0wf3Dqe-2" edge="1">
          <mxGeometry relative="1" as="geometry" />
        </mxCell>
        <mxCell id="jHpQRTPUm73WB0wf3Dqe-19" value="IK_Solver_Node" style="rounded=0;whiteSpace=wrap;html=1;strokeWidth=2;" parent="1" vertex="1">
          <mxGeometry x="710" y="175" width="160" height="60" as="geometry" />
        </mxCell>
        <mxCell id="jHpQRTPUm73WB0wf3Dqe-21" value="Trajectory_Controller_Node" style="rounded=0;whiteSpace=wrap;html=1;strokeWidth=2;" parent="1" vertex="1">
          <mxGeometry x="450" y="175" width="200" height="60" as="geometry" />
        </mxCell>
        <mxCell id="jHpQRTPUm73WB0wf3Dqe-40" style="edgeStyle=orthogonalEdgeStyle;rounded=1;orthogonalLoop=1;jettySize=auto;html=1;entryX=0.75;entryY=1;entryDx=0;entryDy=0;curved=0;strokeWidth=2;jumpStyle=line;exitX=1;exitY=0.5;exitDx=0;exitDy=0;strokeColor=#330066;" parent="1" source="jHpQRTPUm73WB0wf3Dqe-63" target="jHpQRTPUm73WB0wf3Dqe-19" edge="1">
          <mxGeometry relative="1" as="geometry">
            <mxPoint x="310" y="320" as="sourcePoint" />
            <Array as="points">
              <mxPoint x="830" y="335" />
            </Array>
          </mxGeometry>
        </mxCell>
        <mxCell id="jHpQRTPUm73WB0wf3Dqe-42" value="" style="edgeStyle=orthogonalEdgeStyle;rounded=1;orthogonalLoop=1;jettySize=auto;html=1;exitX=1;exitY=0.5;exitDx=0;exitDy=0;entryX=0;entryY=0.5;entryDx=0;entryDy=0;strokeWidth=2;jumpStyle=line;curved=0;strokeColor=#330066;" parent="1" source="jHpQRTPUm73WB0wf3Dqe-19" target="jHpQRTPUm73WB0wf3Dqe-41" edge="1">
          <mxGeometry relative="1" as="geometry">
            <mxPoint x="900" y="380" as="sourcePoint" />
            <mxPoint x="1030" y="320" as="targetPoint" />
            <Array as="points">
              <mxPoint x="1080" y="205" />
              <mxPoint x="1080" y="320" />
            </Array>
          </mxGeometry>
        </mxCell>
        <mxCell id="jHpQRTPUm73WB0wf3Dqe-41" value="&lt;font color=&quot;#330066&quot; style=&quot;font-size: 14px;&quot;&gt;&lt;b style=&quot;&quot;&gt;target_joint_information&lt;/b&gt;&lt;/font&gt;" style="text;html=1;align=center;verticalAlign=middle;whiteSpace=wrap;rounded=0;strokeWidth=2;" parent="1" vertex="1">
          <mxGeometry x="1170" y="305" width="170" height="30" as="geometry" />
        </mxCell>
        <mxCell id="jHpQRTPUm73WB0wf3Dqe-44" value="&lt;font color=&quot;#330066&quot;&gt;&lt;span style=&quot;font-size: 14px;&quot;&gt;&lt;b&gt;target_end_effector_information&lt;/b&gt;&lt;/span&gt;&lt;/font&gt;" style="text;html=1;align=center;verticalAlign=middle;whiteSpace=wrap;rounded=0;strokeWidth=2;" parent="1" vertex="1">
          <mxGeometry x="1080" y="550" width="240" height="30" as="geometry" />
        </mxCell>
        <mxCell id="jHpQRTPUm73WB0wf3Dqe-56" style="edgeStyle=orthogonalEdgeStyle;rounded=1;orthogonalLoop=1;jettySize=auto;html=1;exitX=0;exitY=0.5;exitDx=0;exitDy=0;entryX=1;entryY=0.25;entryDx=0;entryDy=0;strokeWidth=2;curved=0;strokeColor=#330066;" parent="1" source="jHpQRTPUm73WB0wf3Dqe-54" target="jHpQRTPUm73WB0wf3Dqe-7" edge="1">
          <mxGeometry relative="1" as="geometry" />
        </mxCell>
        <mxCell id="jHpQRTPUm73WB0wf3Dqe-54" value="&lt;span style=&quot;font-size: 14px;&quot;&gt;&lt;b style=&quot;&quot;&gt;&lt;font color=&quot;#330066&quot;&gt;current_end_effector_information&lt;/font&gt;&lt;/b&gt;&lt;/span&gt;" style="text;html=1;align=center;verticalAlign=middle;whiteSpace=wrap;rounded=0;strokeWidth=2;" parent="1" vertex="1">
          <mxGeometry x="1080" y="520" width="240" height="30" as="geometry" />
        </mxCell>
        <mxCell id="jHpQRTPUm73WB0wf3Dqe-59" style="edgeStyle=orthogonalEdgeStyle;rounded=0;orthogonalLoop=1;jettySize=auto;html=1;exitX=1;exitY=0.5;exitDx=0;exitDy=0;entryX=0;entryY=0.5;entryDx=0;entryDy=0;strokeWidth=2;strokeColor=#FF8000;" parent="1" source="jHpQRTPUm73WB0wf3Dqe-58" target="jHpQRTPUm73WB0wf3Dqe-7" edge="1">
          <mxGeometry relative="1" as="geometry" />
        </mxCell>
        <mxCell id="jHpQRTPUm73WB0wf3Dqe-58" value="&lt;span style=&quot;font-size: 14px;&quot;&gt;&lt;b style=&quot;&quot;&gt;&lt;font color=&quot;#ff8000&quot;&gt;target_end_effector_state&lt;/font&gt;&lt;/b&gt;&lt;/span&gt;" style="text;html=1;align=center;verticalAlign=middle;whiteSpace=wrap;rounded=0;strokeWidth=2;" parent="1" vertex="1">
          <mxGeometry x="260" y="535" width="190" height="30" as="geometry" />
        </mxCell>
        <mxCell id="jHpQRTPUm73WB0wf3Dqe-63" value="&lt;span style=&quot;font-size: 14px;&quot;&gt;&lt;b style=&quot;&quot;&gt;&lt;font color=&quot;#330066&quot;&gt;target_cartesian&lt;/font&gt;&lt;/b&gt;&lt;/span&gt;" style="text;html=1;align=center;verticalAlign=middle;whiteSpace=wrap;rounded=0;strokeWidth=2;" parent="1" vertex="1">
          <mxGeometry x="230" y="320" width="120" height="30" as="geometry" />
        </mxCell>
        <mxCell id="jHpQRTPUm73WB0wf3Dqe-70" style="edgeStyle=orthogonalEdgeStyle;rounded=1;orthogonalLoop=1;jettySize=auto;html=1;exitX=1;exitY=0.5;exitDx=0;exitDy=0;entryX=0;entryY=0.5;entryDx=0;entryDy=0;strokeWidth=2;jumpStyle=line;curved=0;strokeColor=#FF8000;" parent="1" source="jHpQRTPUm73WB0wf3Dqe-68" target="jHpQRTPUm73WB0wf3Dqe-21" edge="1">
          <mxGeometry relative="1" as="geometry" />
        </mxCell>
        <mxCell id="jHpQRTPUm73WB0wf3Dqe-68" value="&lt;span style=&quot;font-size: 14px;&quot;&gt;&lt;b style=&quot;&quot;&gt;&lt;font color=&quot;#ff8000&quot;&gt;parametric_trajectory_information&lt;/font&gt;&lt;/b&gt;&lt;/span&gt;" style="text;html=1;align=center;verticalAlign=middle;whiteSpace=wrap;rounded=0;strokeWidth=2;" parent="1" vertex="1">
          <mxGeometry x="170" y="190" width="240" height="30" as="geometry" />
        </mxCell>
        <mxCell id="jHpQRTPUm73WB0wf3Dqe-77" style="edgeStyle=orthogonalEdgeStyle;rounded=1;orthogonalLoop=1;jettySize=auto;html=1;exitX=0.75;exitY=1;exitDx=0;exitDy=0;strokeWidth=2;curved=0;startArrow=none;startFill=0;endArrow=classic;endFill=1;entryX=0.5;entryY=0;entryDx=0;entryDy=0;strokeColor=#330066;" parent="1" source="jHpQRTPUm73WB0wf3Dqe-21" target="jHpQRTPUm73WB0wf3Dqe-63" edge="1">
          <mxGeometry relative="1" as="geometry">
            <mxPoint x="420" y="320" as="targetPoint" />
            <Array as="points">
              <mxPoint x="600" y="280" />
              <mxPoint x="290" y="280" />
            </Array>
            <mxPoint x="630" y="365" as="sourcePoint" />
          </mxGeometry>
        </mxCell>
        <mxCell id="jHpQRTPUm73WB0wf3Dqe-85" style="edgeStyle=orthogonalEdgeStyle;rounded=1;orthogonalLoop=1;jettySize=auto;html=1;exitX=1;exitY=0.5;exitDx=0;exitDy=0;entryX=0.92;entryY=0.014;entryDx=0;entryDy=0;strokeWidth=2;curved=0;strokeColor=#FF8000;entryPerimeter=0;" parent="1" source="jHpQRTPUm73WB0wf3Dqe-83" target="jHpQRTPUm73WB0wf3Dqe-2" edge="1">
          <mxGeometry relative="1" as="geometry" />
        </mxCell>
        <mxCell id="jHpQRTPUm73WB0wf3Dqe-83" value="&lt;font color=&quot;#ff8000&quot; style=&quot;font-size: 14px;&quot;&gt;&lt;b style=&quot;&quot;&gt;microcontroller_parameter_dump&lt;/b&gt;&lt;/font&gt;" style="text;html=1;align=center;verticalAlign=middle;whiteSpace=wrap;rounded=0;strokeWidth=2;" parent="1" vertex="1">
          <mxGeometry x="242.5" y="-140" width="240" height="30" as="geometry" />
        </mxCell>
        <mxCell id="jHpQRTPUm73WB0wf3Dqe-95" style="edgeStyle=orthogonalEdgeStyle;rounded=0;orthogonalLoop=1;jettySize=auto;html=1;exitX=1;exitY=0.5;exitDx=0;exitDy=0;strokeWidth=2;" parent="1" source="jHpQRTPUm73WB0wf3Dqe-88" edge="1">
          <mxGeometry relative="1" as="geometry">
            <mxPoint x="1900" y="320" as="targetPoint" />
          </mxGeometry>
        </mxCell>
        <mxCell id="jHpQRTPUm73WB0wf3Dqe-88" value="&lt;font style=&quot;font-size: 14px;&quot;&gt;&lt;b style=&quot;&quot;&gt;To Microcontroller&lt;/b&gt;&lt;/font&gt;" style="text;html=1;align=center;verticalAlign=middle;whiteSpace=wrap;rounded=0;strokeWidth=2;" parent="1" vertex="1">
          <mxGeometry x="1710" y="305" width="140" height="30" as="geometry" />
        </mxCell>
        <mxCell id="jHpQRTPUm73WB0wf3Dqe-107" style="edgeStyle=orthogonalEdgeStyle;rounded=0;orthogonalLoop=1;jettySize=auto;html=1;exitX=1;exitY=0.5;exitDx=0;exitDy=0;strokeWidth=2;strokeColor=#330066;" parent="1" source="jHpQRTPUm73WB0wf3Dqe-104" target="jHpQRTPUm73WB0wf3Dqe-3" edge="1">
          <mxGeometry relative="1" as="geometry" />
        </mxCell>
        <mxCell id="jHpQRTPUm73WB0wf3Dqe-104" value="&lt;font color=&quot;#330066&quot;&gt;&lt;span style=&quot;font-size: 14px;&quot;&gt;&lt;b&gt;parsed_peripheral_info&lt;/b&gt;&lt;/span&gt;&lt;/font&gt;" style="text;html=1;align=center;verticalAlign=middle;whiteSpace=wrap;rounded=0;strokeWidth=2;" parent="1" vertex="1">
          <mxGeometry x="-370" y="305" width="180" height="30" as="geometry" />
        </mxCell>
        <mxCell id="kW0MzSgPqo5yttDoxU_o-2" value="&lt;p style=&quot;line-height: 120%;&quot;&gt;&lt;span style=&quot;font-size: 14px;&quot;&gt;&lt;b style=&quot;&quot;&gt;&lt;font color=&quot;#ff8000&quot;&gt;system_status&lt;/font&gt;&lt;/b&gt;&lt;/span&gt;&lt;/p&gt;" style="text;html=1;align=center;verticalAlign=middle;whiteSpace=wrap;rounded=0;strokeWidth=2;" parent="1" vertex="1">
          <mxGeometry x="302.5" y="90" width="120" height="30" as="geometry" />
        </mxCell>
        <mxCell id="kW0MzSgPqo5yttDoxU_o-7" style="edgeStyle=orthogonalEdgeStyle;curved=0;rounded=1;jumpStyle=line;orthogonalLoop=1;jettySize=auto;html=1;exitX=0;exitY=0.5;exitDx=0;exitDy=0;strokeColor=#330066;strokeWidth=2;align=center;verticalAlign=middle;fontFamily=Helvetica;fontSize=11;fontColor=default;labelBackgroundColor=default;endArrow=classic;entryX=0.617;entryY=-0.008;entryDx=0;entryDy=0;entryPerimeter=0;" parent="1" source="kW0MzSgPqo5yttDoxU_o-4" target="jHpQRTPUm73WB0wf3Dqe-3" edge="1">
          <mxGeometry relative="1" as="geometry" />
        </mxCell>
        <mxCell id="kW0MzSgPqo5yttDoxU_o-4" value="&lt;font color=&quot;#330066&quot;&gt;&lt;span style=&quot;font-size: 14px;&quot;&gt;&lt;b&gt;system_diagnostic_information&lt;/b&gt;&lt;/span&gt;&lt;/font&gt;" style="text;html=1;align=center;verticalAlign=middle;whiteSpace=wrap;rounded=0;strokeWidth=2;" parent="1" vertex="1">
          <mxGeometry x="257.5" y="-10" width="225" height="30" as="geometry" />
        </mxCell>
        <mxCell id="kW0MzSgPqo5yttDoxU_o-23" style="edgeStyle=orthogonalEdgeStyle;rounded=1;orthogonalLoop=1;jettySize=auto;html=1;exitX=1;exitY=0.5;exitDx=0;exitDy=0;entryX=0.25;entryY=1;entryDx=0;entryDy=0;strokeColor=#FF8000;strokeWidth=2;align=center;verticalAlign=middle;fontFamily=Helvetica;fontSize=11;fontColor=default;labelBackgroundColor=default;endArrow=classic;curved=0;" parent="1" source="kW0MzSgPqo5yttDoxU_o-21" target="jHpQRTPUm73WB0wf3Dqe-21" edge="1">
          <mxGeometry relative="1" as="geometry" />
        </mxCell>
        <mxCell id="kW0MzSgPqo5yttDoxU_o-25" style="edgeStyle=orthogonalEdgeStyle;rounded=1;orthogonalLoop=1;jettySize=auto;html=1;exitX=1;exitY=0.5;exitDx=0;exitDy=0;entryX=0.25;entryY=1;entryDx=0;entryDy=0;strokeColor=#FF8000;strokeWidth=2;align=center;verticalAlign=middle;fontFamily=Helvetica;fontSize=11;fontColor=default;labelBackgroundColor=default;endArrow=classic;curved=0;" parent="1" source="kW0MzSgPqo5yttDoxU_o-21" target="jHpQRTPUm73WB0wf3Dqe-19" edge="1">
          <mxGeometry relative="1" as="geometry" />
        </mxCell>
        <mxCell id="kW0MzSgPqo5yttDoxU_o-26" style="edgeStyle=orthogonalEdgeStyle;rounded=1;orthogonalLoop=1;jettySize=auto;html=1;exitX=1;exitY=0.5;exitDx=0;exitDy=0;entryX=0;entryY=0.5;entryDx=0;entryDy=0;strokeColor=#FF8000;strokeWidth=2;align=center;verticalAlign=middle;fontFamily=Helvetica;fontSize=11;fontColor=default;labelBackgroundColor=default;endArrow=classic;curved=0;" parent="1" source="kW0MzSgPqo5yttDoxU_o-21" target="jHpQRTPUm73WB0wf3Dqe-18" edge="1">
          <mxGeometry relative="1" as="geometry" />
        </mxCell>
        <mxCell id="kW0MzSgPqo5yttDoxU_o-21" value="&lt;p style=&quot;line-height: 120%;&quot;&gt;&lt;span style=&quot;font-size: 14px;&quot;&gt;&lt;b style=&quot;&quot;&gt;&lt;font color=&quot;#ff8000&quot;&gt;control_status&lt;/font&gt;&lt;/b&gt;&lt;/span&gt;&lt;/p&gt;" style="text;html=1;align=center;verticalAlign=middle;whiteSpace=wrap;rounded=0;strokeWidth=2;" parent="1" vertex="1">
          <mxGeometry x="230" y="400" width="120" height="30" as="geometry" />
        </mxCell>
        <mxCell id="kW0MzSgPqo5yttDoxU_o-41" style="edgeStyle=orthogonalEdgeStyle;rounded=1;orthogonalLoop=1;jettySize=auto;html=1;exitX=0;exitY=0.5;exitDx=0;exitDy=0;entryX=0.367;entryY=0.025;entryDx=0;entryDy=0;strokeColor=#330066;strokeWidth=2;align=center;verticalAlign=middle;fontFamily=Helvetica;fontSize=11;fontColor=default;labelBackgroundColor=default;endArrow=classic;curved=0;entryPerimeter=0;" parent="1" source="kW0MzSgPqo5yttDoxU_o-38" target="jHpQRTPUm73WB0wf3Dqe-3" edge="1">
          <mxGeometry relative="1" as="geometry" />
        </mxCell>
        <mxCell id="kW0MzSgPqo5yttDoxU_o-38" value="&lt;font color=&quot;#330066&quot;&gt;&lt;span style=&quot;font-size: 14px;&quot;&gt;&lt;b&gt;current_joint_information&lt;/b&gt;&lt;/span&gt;&lt;/font&gt;" style="text;html=1;align=center;verticalAlign=middle;whiteSpace=wrap;rounded=0;strokeWidth=2;" parent="1" vertex="1">
          <mxGeometry x="279.5" y="-50" width="181" height="30" as="geometry" />
        </mxCell>
      </root>
    </mxGraphModel>
  </diagram>
</mxfile>
